<svg width="14" height="17" viewBox="0 0 14 17" fill="none" xmlns="http://www.w3.org/2000/svg">
<path fill-rule="evenodd" clip-rule="evenodd" d="M11.7041 8.69671C11.697 7.40647 12.2806 6.43265 13.4619 5.71546C12.8009 4.76976 11.8025 4.24944 10.4841 4.14749C9.23608 4.04905 7.87202 4.87522 7.3728 4.87522C6.84546 4.87522 5.63608 4.18265 4.68687 4.18265C2.72515 4.21429 0.640381 5.7471 0.640381 8.86546C0.640381 9.78655 0.809131 10.7381 1.14663 11.7201C1.59663 13.0104 3.22085 16.1744 4.91538 16.1217C5.80132 16.1006 6.4271 15.4924 7.58022 15.4924C8.69819 15.4924 9.27827 16.1217 10.2662 16.1217C11.9748 16.0971 13.4443 13.2213 13.8732 11.9276C11.581 10.8483 11.7041 8.76351 11.7041 8.69671L11.7041 8.69671ZM9.7142 2.92407C10.674 1.78501 10.5861 0.7479 10.5579 0.375244C9.71068 0.424463 8.72982 0.951807 8.17084 1.6022C7.5556 2.29829 7.19349 3.15962 7.27084 4.12993C8.18842 4.20024 9.02513 3.72915 9.7142 2.92407Z" fill="black"/>
</svg>
