<svg width="19" height="19" viewBox="0 0 19 19" fill="none" xmlns="http://www.w3.org/2000/svg">
<mask id="mask0_1_80" style="mask-type:luminance" maskUnits="userSpaceOnUse" x="0" y="0" width="19" height="19">
<rect x="0.499756" y="0.250244" width="18" height="18" fill="white"/>
</mask>
<g mask="url(#mask0_1_80)">
<path fill-rule="evenodd" clip-rule="evenodd" d="M9.49976 2.12524C5.56473 2.12524 2.37477 5.3152 2.37476 9.25023C2.37475 13.1852 5.5647 16.3752 9.49972 16.3752C13.4347 16.3753 16.6247 13.1853 16.6247 9.25028C16.6248 5.31526 13.4348 2.12527 9.49979 2.12524H9.49976Z" fill="#039BE5"/>
<path fill-rule="evenodd" clip-rule="evenodd" d="M10.4643 11.1387H12.3081L12.5976 9.2656H10.4639V8.24185C10.4639 7.46372 10.7181 6.77372 11.446 6.77372H12.6156V5.1391C12.4101 5.11135 11.9755 5.0506 11.1543 5.0506C9.43939 5.0506 8.43402 5.95622 8.43402 8.01947V9.2656H6.67114V11.1387H8.43402V16.2871C8.78314 16.3396 9.13677 16.3752 9.49977 16.3752C9.82789 16.3752 10.1481 16.3452 10.4643 16.3025V11.1387Z" fill="white"/>
</g>
</svg>
