<svg width="19" height="19" viewBox="0 0 19 19" fill="none" xmlns="http://www.w3.org/2000/svg">
<mask id="mask0_1_72" style="mask-type:luminance" maskUnits="userSpaceOnUse" x="0" y="0" width="19" height="19">
<rect x="0.499756" y="0.250244" width="18" height="18" fill="white"/>
</mask>
<g mask="url(#mask0_1_72)">
<path fill-rule="evenodd" clip-rule="evenodd" d="M16.8539 7.78137H16.2498V7.75024H9.49976V10.7502H13.7384C13.12 12.4966 11.4584 13.7502 9.49976 13.7502C7.01463 13.7502 4.99976 11.7354 4.99976 9.25024C4.99976 6.76512 7.01463 4.75024 9.49976 4.75024C10.6469 4.75024 11.6905 5.18299 12.4851 5.88987L14.6065 3.76849C13.267 2.52012 11.4753 1.75024 9.49976 1.75024C5.35788 1.75024 1.99976 5.10837 1.99976 9.25024C1.99976 13.3921 5.35788 16.7502 9.49976 16.7502C13.6416 16.7502 16.9998 13.3921 16.9998 9.25024C16.9998 8.74737 16.948 8.25649 16.8539 7.78137Z" fill="#FFC107"/>
<path fill-rule="evenodd" clip-rule="evenodd" d="M2.8645 5.75937L5.32863 7.56649C5.99538 5.91574 7.61013 4.75024 9.49975 4.75024C10.6469 4.75024 11.6905 5.18299 12.4851 5.88987L14.6065 3.76849C13.267 2.52012 11.4753 1.75024 9.49975 1.75024C6.619 1.75024 4.12075 3.37662 2.8645 5.75937Z" fill="#FF3D00"/>
<path fill-rule="evenodd" clip-rule="evenodd" d="M9.49975 16.7503C11.437 16.7503 13.1973 16.0089 14.5281 14.8033L12.2069 12.839C11.4539 13.4094 10.5179 13.7503 9.49975 13.7503C7.549 13.7503 5.89263 12.5064 5.26863 10.7705L2.82288 12.6549C4.06413 15.0838 6.58488 16.7503 9.49975 16.7503Z" fill="#4CAF50"/>
<path fill-rule="evenodd" clip-rule="evenodd" d="M16.8539 7.78137H16.2498V7.75024H9.49976V10.7502H13.7384C13.4414 11.5891 12.9018 12.3125 12.2058 12.8394C12.2061 12.839 12.2065 12.839 12.2069 12.8386L14.5281 14.8029C14.3639 14.9521 16.9998 13.0002 16.9998 9.25024C16.9998 8.74737 16.948 8.25649 16.8539 7.78137Z" fill="#1976D2"/>
</g>
</svg>
